PathFileType	4	(X/Y/Z)	SUBJ36_1_walk_RCNL2025.trc
DataRate	CameraRate	NumFrames	NumMarkers	Units	OrigDataRate	OrigDataStartFrame	OrigNumFrames
100	100	13	25	mm	100	331	378
Frame#	Time	R_Shoulder			L_Shoulder			C7			J_Notch			R_Elbow			L_Elbow			R_Wrist			L_Wrist			R_Asis			L_Asis			Sacral			Thoracic			Sternum			R_Thigh_Lateral			R_Knee_Lateral			R_Shank_Lateral			R_Ankle_Lateral			R_Heel			R_Toe			L_Thigh_Lateral			L_Knee_Lateral			L_Shank_Lateral			L_Ankle_Lateral			L_Heel			L_Toe		
		X1	Y1	Z1	X2	Y2	Z2	X3	Y3	Z3	X4	Y4	Z4	X5	Y5	Z5	X6	Y6	Z6	X7	Y7	Z7	X8	Y8	Z8	X9	Y9	Z9	X10	Y10	Z10	X11	Y11	Z11	X12	Y12	Z12	X13	Y13	Z13	X14	Y14	Z14	X15	Y15	Z15	X16	Y16	Z16	X17	Y17	Z17	X18	Y18	Z18	X19	Y19	Z19	X20	Y20	Z20	X21	Y21	Z21	X22	Y22	Z22	X23	Y23	Z23	X24	Y24	Z24	X25	Y25	Z25
331	3.30000000	2670.474121	1347.575439	-13.257492	2652.223389	1315.643311	-357.708160	2593.702148	1400.952881	-170.487167	2731.807373	1293.064453	-178.659180	2587.757080	1039.148560	76.130867	2586.398438	1003.674500	-401.058807	2643.483398	806.062225	107.186237	2670.660522	784.192474	-405.399963	2713.460449	900.547546	-53.229214	2715.649170	905.424927	-281.591492	2493.705811	894.300049	-163.944962	2499.848389	1148.333008	-158.526031	2761.553955	1112.451660	-163.502899	2699.403809	491.991608	10.465453	2711.153076	439.103302	-32.129780	2558.608643	314.372314	1.658331	2461.035889	170.993637	-60.237003	2415.448975	173.906921	-114.198280	2533.341064	71.833588	-60.827995	2660.160645	504.357727	-341.893127	2653.738037	432.852692	-265.460876	2605.402832	223.973587	-285.231049	2581.557129	62.591255	-205.598267	2544.805664	35.913345	-147.216156	2707.926270	36.613789	-197.378464
332	3.31000000	2680.169678	1347.886108	-13.308481	2664.230957	1316.607300	-357.884094	2604.432373	1401.334106	-170.938354	2742.615479	1293.590820	-178.456711	2596.169434	1039.450562	75.314911	2600.797852	1004.200562	-402.317963	2651.306030	806.419281	107.466473	2687.654541	785.681610	-405.086609	2724.134033	901.558472	-53.991856	2726.533936	905.336853	-282.304321	2504.504883	894.278809	-163.993088	2513.256836	1147.762817	-161.232895	2772.428711	1113.034302	-163.455734	2719.466064	494.362000	9.795171	2731.477539	441.424194	-33.133804	2583.860107	309.710602	1.809516	2492.043701	162.725891	-59.775978	2445.773193	163.036316	-113.473572	2569.586670	68.144478	-59.751377	2664.824707	504.481934	-341.811584	2656.069824	432.812683	-265.278290	2606.378418	224.117081	-285.150635	2581.690430	62.672955	-205.523941	2544.799805	36.181473	-147.296921	2708.032959	36.522987	-197.354584
333	3.32000000	2689.843262	1348.017700	-13.392107	2676.178223	1317.348145	-358.067017	2615.135742	1401.510742	-171.413483	2753.404297	1293.931641	-178.283554	2604.648438	1039.567871	74.492088	2615.200928	1004.520996	-403.569214	2659.266846	806.603790	107.721970	2704.701660	787.023743	-404.735733	2734.858887	902.447083	-54.654438	2737.425781	905.022217	-282.926483	2515.343750	894.110596	-163.975159	2526.322754	1147.122803	-163.761841	2783.306641	1113.436890	-163.439957	2739.092529	496.713257	9.080930	2751.239502	443.576965	-34.141697	2609.332764	304.406891	2.018147	2523.751465	153.984375	-59.298290	2476.951416	151.708405	-112.759018	2606.329590	64.244186	-58.917213	2669.062500	504.582947	-341.758057	2658.183350	432.835693	-265.133209	2607.117676	224.330688	-285.114197	2581.811768	62.819824	-205.487885	2544.787598	36.494228	-147.395340	2708.124512	36.435658	-197.352112
334	3.33000000	2699.520996	1347.953735	-13.504020	2688.071777	1317.840210	-358.251373	2625.823486	1401.468506	-171.903824	2764.184814	1294.066040	-178.136612	2613.212402	1039.482300	73.665520	2629.592285	1004.620300	-404.804413	2667.383667	806.601379	107.960518	2721.791382	788.209167	-404.357224	2745.620605	903.213684	-55.211864	2748.321289	904.503723	-283.461273	2526.222900	893.782471	-163.912842	2538.777832	1146.486938	-166.005203	2794.188965	1113.637085	-163.435776	2758.223389	498.993866	8.346956	2770.421875	445.507385	-35.120739	2635.079346	298.581940	2.261562	2556.122559	144.929291	-58.871704	2508.954590	140.098511	-112.116730	2643.504639	60.270382	-58.367836	2672.742920	504.704437	-341.749664	2660.051025	432.942169	-265.042206	2607.647949	224.622849	-285.129913	2581.929443	63.053913	-205.495651	2544.784668	36.872986	-147.514725	2708.202148	36.352119	-197.369186
335	3.34000000	2709.228516	1347.682739	-13.638819	2699.917480	1318.065308	-358.433136	2636.504395	1401.196533	-172.398865	2774.968262	1293.977295	-178.011917	2621.883301	1039.184570	72.844223	2643.951904	1004.483215	-406.008728	2675.675049	806.403748	108.190258	2738.907959	789.231384	-403.958496	2756.409424	903.844971	-55.667370	2759.216309	903.811890	-283.919525	2537.142090	893.276611	-163.820526	2550.623535	1145.845703	-167.952454	2805.078857	1113.616211	-163.426529	2776.796387	501.147278	7.616718	2789.019531	447.170380	-36.038395	2661.116211	292.395538	2.516833	2589.113281	135.727905	-58.561401	2541.750732	128.388687	-111.599861	2681.043701	56.364456	-58.137733	2675.758057	504.900909	-341.796295	2661.669434	433.159821	-265.020813	2608.012695	225.006577	-285.198029	2582.048096	63.394684	-205.541809	2544.811279	37.344486	-147.655334	2708.268799	36.271156	-197.402100
336	3.35000000	2718.991211	1347.198608	-13.789034	2711.719727	1318.011230	-358.609528	2647.185547	1400.690308	-172.886505	2785.762939	1293.654175	-177.905060	2630.682861	1038.673218	72.039726	2658.259766	1004.098511	-407.165344	2684.156006	806.006561	108.417580	2756.028687	790.085114	-403.541855	2767.221436	904.316040	-56.031013	2770.107422	902.981689	-284.319305	2548.099854	892.577209	-163.706024	2562.005371	1145.150513	-169.638367	2815.979736	1113.359985	-163.399551	2794.747559	503.112610	6.911757	2807.029053	448.524567	-36.869068	2687.381592	286.011688	2.743895	2622.675537	126.552261	-58.422714	2575.306885	116.769089	-111.251060	2718.875244	52.671986	-58.250225	2678.061279	505.227692	-341.894348	2663.071533	433.520752	-265.080139	2608.263184	225.498032	-285.308350	2582.171631	63.862370	-205.614105	2544.884277	37.940983	-147.807236	2708.329590	36.189999	-197.445892
337	3.36000000	2728.830078	1346.500488	-13.944915	2723.480713	1317.672607	-358.777710	2657.874023	1399.951660	-173.354919	2796.574951	1293.092896	-177.810944	2639.630859	1037.951050	71.261665	2672.500244	1003.461853	-408.259674	2692.834717	805.406281	108.645523	2773.125000	790.764313	-403.104004	2778.060547	904.593384	-56.317757	2780.994873	902.048218	-284.683777	2559.093994	891.676086	-163.572159	2573.111816	1144.344238	-171.107285	2826.895020	1112.859253	-163.346924	2812.020264	504.825745	6.251242	2824.448486	449.535553	-37.596523	2713.750977	279.578857	2.889920	2656.756592	117.570885	-58.497421	2609.581543	105.425972	-111.109520	2756.921875	49.340977	-58.718060	2679.693359	505.731079	-342.024902	2664.331787	434.052490	-265.222076	2608.452148	226.117661	-285.441589	2582.307129	64.479446	-205.697830	2545.013184	38.696022	-147.944595	2708.391357	36.105602	-197.495605
338	3.37000000	2738.759521	1345.591553	-14.095552	2735.200684	1317.050781	-358.933228	2668.574951	1398.988037	-173.794052	2807.407471	1292.296875	-177.722534	2648.742188	1037.021729	70.514633	2686.663574	1002.575073	-409.278839	2701.711304	804.598450	108.873043	2790.167480	791.263184	-402.639069	2788.935547	904.638428	-56.544960	2791.881104	901.044067	-285.038086	2570.121826	890.571655	-163.414993	2584.105225	1143.380493	-172.392090	2837.825684	1112.111328	-163.265625	2828.575928	506.221985	5.651945	2841.280029	450.180939	-38.212711	2740.082520	273.228149	2.906918	2691.292969	108.938309	-58.813633	2644.510010	94.522102	-111.221252	2795.100342	46.516727	-59.547955	2680.785156	506.442169	-342.158478	2665.557617	434.767395	-265.436737	2608.625977	226.891022	-285.573853	2582.463867	65.265602	-205.775436	2545.201904	39.637321	-148.028320	2708.463623	36.016914	-197.548859
339	3.38000000	2748.787354	1344.479370	-14.230425	2746.879150	1316.155029	-359.069397	2679.294189	1397.812256	-174.196243	2818.262695	1291.277344	-177.630432	2658.024902	1035.886353	69.795952	2700.747559	1001.443726	-410.209290	2710.780518	803.578674	109.094738	2807.128784	791.577698	-402.142075	2799.859863	904.413940	-56.729259	2802.773193	899.997620	-285.405762	2581.179443	889.268372	-163.223816	2595.090088	1142.230225	-173.508255	2848.772949	1111.122437	-163.156860	2844.398193	507.239807	5.127683	2857.531250	450.451172	-38.716370	2766.249268	267.069366	2.760482	2726.205322	100.789597	-59.386189	2679.996582	84.191360	-111.635872	2833.319092	44.333572	-60.746475	2681.546387	507.371918	-342.265320	2666.875732	435.658539	-265.704773	2608.823242	227.845734	-285.680908	2582.650635	66.230782	-205.824326	2545.454834	40.781822	-148.018661	2708.558594	35.927452	-197.609528
340	3.39000000	2758.914062	1343.175293	-14.339934	2758.515137	1315.002686	-359.177673	2690.035645	1396.442749	-174.556091	2829.142334	1290.052856	-177.524292	2667.479736	1034.543213	69.098366	2714.754395	1000.078735	-411.037537	2720.035400	802.344666	109.301826	2823.985962	791.707581	-401.610413	2810.849365	903.891907	-56.883537	2813.679932	898.932190	-285.804199	2592.262695	887.778870	-162.986938	2606.109863	1140.883057	-174.457687	2859.739258	1109.909790	-163.024307	2859.489014	507.823883	4.686734	2873.209717	450.346802	-39.113880	2792.146729	261.184814	2.431911	2761.395020	93.243385	-60.213585	2715.920898	74.551918	-112.388664	2871.469971	42.905106	-62.322708	2682.244873	508.505524	-342.326630	2668.417725	436.702179	-266.003357	2609.076416	229.004089	-285.741516	2582.876221	67.372169	-205.819168	2545.779541	42.134918	-147.888763	2708.692871	35.846531	-197.689621
341	3.40000000	2769.134766	1341.694946	-14.414452	2770.108154	1313.619751	-359.248535	2700.801758	1394.902466	-174.868683	2840.048096	1288.649048	-177.395004	2677.109131	1032.995117	68.420326	2728.689697	998.498962	-411.752625	2729.471558	800.899231	109.485462	2840.719360	791.657410	-401.043991	2821.920166	903.059937	-57.015232	2824.613281	897.864868	-286.239594	2603.368896	886.128723	-162.696930	2617.160400	1139.348145	-175.232635	2870.730713	1108.501465	-162.872635	2873.861572	507.928131	4.327285	2888.320557	449.873199	-39.422684	2817.701660	255.630692	1.920707	2796.739258	86.405380	-61.275517	2752.140137	65.716537	-113.483704	2909.421631	42.317108	-64.284996	2683.173828	509.798798	-342.338501	2670.312012	437.862152	-266.312744	2609.416992	230.373245	-285.739502	2583.149170	68.676796	-205.740417	2546.182617	43.691772	-147.632080	2708.881836	35.786388	-197.805069
342	3.41000000	2779.442383	1340.059204	-14.443614	2781.656982	1312.039062	-359.272675	2711.594238	1393.217407	-175.127228	2850.982422	1287.097534	-177.235153	2686.927734	1031.258057	67.775879	2742.561279	996.731873	-412.346222	2739.090820	799.253906	109.639858	2857.312378	791.437622	-400.444656	2833.088379	901.925476	-57.125935	2835.586182	896.804810	-286.705505	2614.500488	884.358276	-162.352951	2628.219482	1137.649292	-175.820282	2881.753906	1106.933716	-162.705948	2887.529785	507.518219	4.032709	2902.865967	449.038788	-39.673382	2842.875977	250.446320	1.244919	2832.083740	80.364281	-62.536777	2788.479736	57.786800	-114.882629	2947.017822	42.623135	-66.633125	2684.613037	511.181091	-342.307617	2672.676270	439.092255	-266.619659	2609.882080	231.938080	-285.666626	2583.481934	70.128082	-205.586075	2546.666260	45.439453	-147.264175	2709.132812	35.756157	-197.965286
343	3.42000000	2789.830078	1338.294067	-14.416861	2793.162109	1310.298950	-359.241547	2722.414551	1391.418091	-175.321426	2861.947266	1285.433960	-177.037781	2696.961426	1029.360840	67.191444	2756.379883	994.813965	-412.811157	2748.902466	797.430511	109.762600	2873.751099	791.063965	-399.815430	2844.368164	900.515869	-57.212532	2846.613770	895.751221	-287.185638	2625.667725	882.516663	-161.958359	2639.277588	1135.818604	-176.211868	2892.815430	1105.247681	-162.525909	2900.503906	506.573029	3.768481	2916.852783	447.860687	-39.908504	2867.664795	245.665833	0.436441	2867.235352	75.186226	-63.952965	2824.718994	50.835506	-116.492371	2984.074463	43.838848	-69.349693	2686.796143	512.564514	-342.248108	2675.613037	440.337677	-266.917908	2610.522705	233.662003	-285.526794	2583.890381	71.710312	-205.377533	2547.228027	47.360535	-146.820969	2709.434326	35.759369	-198.165283
